<?xml version="1.0" encoding="utf-8" ?><svg xmlns="http://www.w3.org/2000/svg" xmlns:xlink="http://www.w3.org/1999/xlink" width="2048" height="2048" viewBox="0 0 2048 2048"><path d="M1020.88 601.191C1022.5 601.163 1030.42 601.292 1031.23 601.716C1074.04 624.206 1131.67 661.159 1171.48 684.972C1197.37 700.281 1223.18 715.727 1248.9 731.311C1264.68 740.696 1280.62 749.853 1296.09 759.731C1306.42 766.321 1309.43 774.008 1309.95 785.798C1310.69 802.394 1310.4 819.032 1310.4 835.645L1310.38 924.788L1310.4 1020.22C1310.39 1041.41 1311.34 1069.72 1307.51 1090.02C1294.99 1104.69 1247.31 1130.4 1228.61 1141.55L1135.26 1197.7C1118.59 1207.67 1101.98 1217.72 1085.41 1227.85C1071.1 1236.63 1045.65 1252.91 1030.1 1257.94C1011.84 1257.69 981.153 1235.79 964.59 1225.78L884.16 1177.42L804.327 1129.83C788.655 1120.47 756.395 1101.68 743.959 1089.57C741.445 1069.88 741.779 1049.29 741.704 1029.39L741.654 953.428L741.639 849.15C741.598 830.32 741.21 811.428 741.517 792.609C741.733 779.365 742.733 769.427 754.642 761.558C772.588 749.7 791.028 738.734 809.399 727.583L911.221 665.975L978.952 624.83C989.144 618.653 1010.33 605.121 1020.88 601.191Z"/><path d="M401.454 374.177C402.963 374.247 402.745 374.193 404.533 374.539C416.22 376.8 545.381 454.629 548.402 461.822C550.269 466.268 550.818 472.936 551.064 477.759C552.131 498.643 550.907 520.089 550.953 541.029C551.006 565.111 552.291 589.865 551.029 613.893C550.771 618.816 550.249 626.211 548.236 630.632C546.442 634.572 539.764 638.884 536.175 641.343C515.132 655.756 492.122 668.298 470.274 681.533C450.792 693.334 426.472 711.093 405.624 718.627C402.406 718.424 398.59 718.155 395.744 716.635C375.506 705.819 349.975 690.723 330.879 678.801C314.873 668.809 268.759 643.349 257.188 631.91C253.647 617.413 254.256 574.344 254.51 557.686C254.956 528.343 252.72 488.788 257.169 460.439C267.204 450.915 387.405 379.707 401.454 374.177Z"/><path d="M1646.1 374.141C1647.88 374.074 1649.69 374.022 1651.47 374.233C1660.96 375.362 1791.24 453.855 1795.68 461.104C1797.91 464.753 1798.15 472.198 1798.36 476.509C1799.46 499.31 1798.32 522.585 1798.33 545.445C1798.34 568.195 1799.57 591.734 1798.05 614.4C1797.69 619.824 1796.82 625.953 1794.74 630.971C1793.43 634.107 1790.85 635.682 1788.19 637.583C1770.93 649.922 1751.24 660.387 1733.14 671.583C1710.19 685.778 1678.3 707.98 1654.42 717.957C1645.3 718.867 1630.51 710.094 1621.59 704.557C1583.76 681.074 1542.83 659.466 1506.92 633.305C1504.29 631.387 1501.93 618.288 1501.95 614.834C1502.2 568.361 1501.84 521.843 1501.93 475.372C1501.95 465.62 1504.44 459.22 1513.21 453.991C1545.45 434.757 1576.8 414.121 1608.51 394.015C1619.16 387.298 1634.57 378.261 1646.1 374.141Z"/><path d="M1022.74 1500.94C1041.99 1500.68 1122.27 1556.94 1143.4 1567.37C1149.1 1570.19 1166 1581.5 1171.11 1585.8C1172.82 1592.74 1174.09 1600.43 1174.16 1607.6C1174.54 1650.05 1174.89 1692.67 1174.01 1735.13C1173.87 1741.8 1173.61 1748.63 1172.19 1755.14C1152.32 1771.18 1116.55 1791.2 1094.01 1804.85C1077.29 1814.98 1048.22 1833.39 1031.75 1841.45C1028.5 1841.89 1024.87 1841.77 1021.65 1841.19C1018.43 1840.6 1015.49 1839.5 1012.6 1837.97C995.751 1829.07 979.726 1817.6 963.321 1807.78C940.434 1794.09 915.935 1781.23 894.128 1765.9C889.626 1762.74 883.706 1758.24 880.897 1753.54C877.114 1747.22 878.188 1616.6 879.2 1599.48C879.429 1595.6 880.217 1591.86 881.14 1588.1C891.557 1577.05 1006.71 1508.77 1022.74 1500.94Z"/><path d="M1486.47 643.901C1492.41 646.214 1497.21 656.621 1499.81 662.28C1446.32 696.003 1392.2 728.702 1337.48 760.359C1332.65 759.05 1327.14 747.054 1325.02 742.535C1374.36 709.56 1435.39 674.777 1486.47 643.901Z"/><path d="M560.528 644.682C569.68 646.82 616.559 677.067 627.311 683.416C660.745 703.159 694.243 725.21 728.546 743.637C722.905 751.149 721.609 753.335 717.312 761.559C710.122 759.497 681.523 741.791 672.78 736.587L549.555 661.873C552.471 655.947 556.761 650.156 560.528 644.682Z"/><path d="M1017.97 1286.94L1036.85 1287.08C1037.33 1311.42 1039.54 1460.99 1035.39 1472.34L1016.62 1472.26C1014.86 1440.31 1017.04 1404.19 1016.24 1371.89C1015.96 1360.75 1015.17 1293.26 1017.97 1286.94Z"/></svg>